# xmcd CD database file
#
# Track frame offsets:
#	150
#	18705
#	40280
#	61072
#	81472
#	98277
#	112988
#	132280
#	154329
#	165446
#	184646
#	195705
#	217938
#	250155
#	271819
#	296888
#
# Disc length: 4219 seconds
#
# Revision: 0
# Processed by: cddbd v1.5.1PL2 Copyright (c) Steve Scherf et al.
# Submitted via: CDex 1.51
#
DISCID=d9107910
DTITLE=Zoot Sims et al - Mono Zoot
DYEAR=1961
DGENRE=Jazz
TTITLE0=The Note
TTITLE1=You'd Be So Nice To Come Home To
TTITLE2=You 'n Me
TTITLE3=On The Alamo
TTITLE4=The Opener
TTITLE5=Angel Eyes
TTITLE6=Awful Lonely
TTITLE7=Love For Sale
TTITLE8=Improvisation fo Unaccompanied Saxophones
TTITLE9=I'll Remember April
TTITLE10=Flamingo
TTITLE11=There Will Never Be Another You
TTITLE12=Red Door
TTITLE13=You're Driving Me Crazy
TTITLE14=Brushes
TTITLE15=Choice Blues
EXTD=YEAR: 1961
EXTT0=
EXTT1=
EXTT2=
EXTT3=
EXTT4=
EXTT5=
EXTT6=
EXTT7=
EXTT8=
EXTT9=
EXTT10=
EXTT11=
EXTT12=
EXTT13=
EXTT14=
EXTT15=
PLAYORDER=
